<svg width="998" height="862" viewBox="0 0 998 862" fill="none" xmlns="http://www.w3.org/2000/svg">
<g clip-path="url(#clip0_2701_112)">
<path d="M597.693 863.691H998L549.849 605.382L500.539 690.557L401.847 520.078L397.232 517.419L597.693 863.691Z" fill="#42A68E"/>
<path d="M600.768 517.419L549.849 605.382L998 863.691L797.848 517.419H600.768Z" fill="#52C3A8"/>
<path d="M401.847 520.078L400.307 517.419H397.232L401.847 520.078Z" fill="#52C3A8"/>
<path d="M500.533 -2L300.381 344.272L400.61 517.41L400.616 517.419H500.533L500.539 -2H500.533Z" fill="#F7601D"/>
<path d="M500.533 517.419H600.756L700.994 344.272L500.533 -2V517.419Z" fill="#DC4C0C"/>
<path d="M500.539 690.557L450.496 604.111L-6.8685e-06 864H400.307L600.768 517.419L500.539 690.557Z" fill="#FFBB30"/>
<path d="M200.155 517.419L-6.8685e-06 864L450.496 604.111L400.307 517.419H200.155Z" fill="#FFAB00"/>
</g>
<defs>
<clipPath id="clip0_2701_112">
<rect width="998" height="862" fill="white"/>
</clipPath>
</defs>
</svg>
