<svg width="409" height="338" viewBox="0 0 409 338" fill="none" xmlns="http://www.w3.org/2000/svg">
<path d="M204.534 253.202L171.249 309.947L42.0039 310.089L106.748 198.23L172.534 197.777L204.534 253.202Z" fill="#42A68E" fill-opacity="0.1"/>
<path d="M188.283 225.057H188.285L202.097 248.979L148.123 249.146L147.276 249.63L147.557 249.147L147 249.149L147.841 248.658L174.972 202L188.283 225.057Z" fill="#42A68E"/>
<path d="M197.98 241.648L161.531 241.537L160.346 242.223L160.739 241.535L159.948 241.533L161.133 240.849L179.261 209.229L197.98 241.648Z" fill="#42A68E"/>
<path d="M269.001 140L236.501 197.198H172.501L140 140L204.501 28L269.001 140Z" fill="#DC4C0C"/>
<path d="M205 47.4121L264.337 149.199L236.501 197.199H172.501L144.664 149.199L204.001 47.4121V45.6992L204.5 46.5557L205 45.6992V47.4121Z" fill="#DC4C0C"/>
<path d="M204.59 60.0088L260.234 156.199L236.501 197.198H172.5L148.767 156.199L204.41 60.0088L204.411 59.6992L204.5 59.8535L204.59 59.6992V60.0088Z" fill="#DC4C0C"/>
<path d="M204.636 75.165L255.851 163.699L236.501 197.198H172.5L153.15 163.699L204.364 75.165L204.366 74.6992L204.5 74.9307L204.635 74.6992L204.636 75.165Z" fill="#DC4C0C"/>
<path d="M205 91.4258L251.437 171.699L236.501 197.198H172.5L157.564 171.699L204.001 91.4258V89.6992L204.5 90.5625L205 89.6992V91.4258Z" fill="#DC4C0C"/>
<path d="M204.727 105.478L247.174 178.855L236.5 197.197H172.501L161.827 178.855L204.273 105.478L204.276 104.699L204.5 105.086L204.725 104.699L204.727 105.478Z" fill="#DC4C0C"/>
<path d="M204.771 120.63L242.813 186.394L236.5 197.198H172.501L166.188 186.394L204.229 120.63L204.232 119.699L204.5 120.162L204.769 119.699L204.771 120.63Z" fill="#DC4C0C"/>
<path d="M239 193.561L236.984 196.703H204.751L204.752 197H172.015L170 193.858L204.434 135.516L204.436 135L239 193.561Z" fill="#DC4C0C"/>
<path d="M204.28 150.96L231 197H177L203.719 150.96L203.723 150L204 150.476L204.277 150L204.28 150.96Z" fill="#DC4C0C"/>
<path d="M204.894 165.377L223 197H186L204.106 165.377V164L204.5 164.688L204.894 164V165.377Z" fill="#DC4C0C"/>
<path d="M302.467 197.456L236.896 197L205 252.765L236.896 310H367L302.467 197.456Z" fill="#FFAD00"/>
<path d="M351.461 301.217L352.452 301.212L350.968 300.355L292.488 198.076L237 198.183L205 253.607L232.651 301.715L350.467 301.221L351.953 302.079L351.461 301.217Z" fill="#FFAD00"/>
<path d="M339.945 294.568L340.123 294.567L339.855 294.413L284.374 198.129L237 198.182L205 253.608L228.639 294.661L339.765 294.568L340.034 294.722L339.945 294.568Z" fill="#FFAD00"/>
<path d="M326.886 287.031L327.155 287.031L326.751 286.796L275.687 198.178L237.001 198.185L221.251 225.465L221.25 225.464L205 253.609L224.337 287.117L326.614 287.032L327.021 287.265L326.886 287.031Z" fill="#FFAD00"/>
<path d="M312.852 278.352L266.552 198L237.001 198.185L205 253.611L219.616 279.296L312.353 279.217L313.848 280.08L313.35 279.217L314.348 279.215L312.852 278.352Z" fill="#FFAD00"/>
<path d="M300.546 271.563L258.223 198.113L237.001 198.186L205.001 253.61L215.549 272.026L300.32 271.955L300.995 272.342L300.772 271.955L301.219 271.954L300.546 271.563Z" fill="#FFAD00"/>
<path d="M287.716 264.415L288.251 264.414L287.447 263.947L249.515 198.119L237.001 198.184L205.002 253.609L211.202 264.479L287.176 264.415L287.984 264.878L287.716 264.415Z" fill="#FFAD00"/>
<path d="M274.658 256.875L275.283 256.874L274.342 256.328L240.758 198.043L237.001 198.184L205.001 253.608L206.757 256.931L274.025 256.876L274.97 257.418L274.658 256.875Z" fill="#FFAD00"/>
<path d="M261.978 249.555L262.535 249.556L261.693 249.065L234.563 202.406L207.438 249.385L261.411 249.553L262.258 250.036L261.978 249.555Z" fill="#FFAD00"/>
<path d="M248.796 241.945L249.587 241.942L248.403 241.258L230.274 209.637L211.555 242.057L248.004 241.947L249.19 242.631L248.796 241.945Z" fill="#FFAD00"/>
<path d="M171.661 197.703L203.922 253.602L171.611 309.503H42.5645L107.088 197.703H171.661Z" stroke="#ACACAC"/>
<path d="M301.909 197.703L366.434 309.604H237.388L205.075 253.653L237.337 197.703H301.909Z" stroke="#ACACAC"/>
<path d="M269.023 140.799L236.713 196.7H172.189L139.877 140.799L204.5 28.999L269.023 140.799Z" stroke="#ACACAC"/>
<circle cx="204.5" cy="29.5" r="2.5" fill="#ACACAC"/>
<circle cx="139.5" cy="140.5" r="2.5" fill="#ACACAC"/>
<circle cx="106.68" cy="196.905" r="2.5" transform="rotate(-74.9823 106.68 196.905)" fill="#ACACAC"/>
<circle cx="2.5" cy="2.5" r="2.5" transform="matrix(-0.259118 -0.965846 -0.965846 0.259118 305.094 198.828)" fill="#ACACAC"/>
<circle cx="269.5" cy="140.5" r="2.5" fill="#ACACAC"/>
<circle cx="171.648" cy="309.507" r="2.5" transform="rotate(-74.9823 171.648 309.507)" fill="#ACACAC"/>
<circle cx="2.5" cy="2.5" r="2.5" transform="matrix(-0.259118 -0.965846 -0.965846 0.259118 240.125 311.43)" fill="#ACACAC"/>
<circle cx="366.5" cy="309.5" r="2.5" fill="#ACACAC"/>
<circle cx="2.5" cy="2.5" r="2.5" transform="matrix(-1 0 0 1 45 307)" fill="#ACACAC"/>
</svg>
