<svg width="409" height="366" viewBox="0 0 409 366" fill="none" xmlns="http://www.w3.org/2000/svg">
<path d="M171.661 197.703L203.922 253.602L171.611 309.503H42.5645L107.088 197.703H171.661Z" stroke="white"/>
<path d="M301.909 197.703L366.434 309.604H237.388L205.075 253.653L237.337 197.703H301.909Z" stroke="white"/>
<path d="M269.023 140.799L236.713 196.7H172.189L139.877 140.799L204.5 28.999L269.023 140.799Z" stroke="white"/>
<circle cx="204.5" cy="29.5" r="2.5" fill="white"/>
<circle cx="139.5" cy="140.5" r="2.5" fill="white"/>
<circle cx="106.68" cy="196.905" r="2.5" transform="rotate(-74.9823 106.68 196.905)" fill="white"/>
<circle cx="2.5" cy="2.5" r="2.5" transform="matrix(-0.259118 -0.965846 -0.965846 0.259118 305.094 198.828)" fill="white"/>
<circle cx="269.5" cy="140.5" r="2.5" fill="white"/>
<circle cx="171.648" cy="309.507" r="2.5" transform="rotate(-74.9823 171.648 309.507)" fill="white"/>
<circle cx="2.5" cy="2.5" r="2.5" transform="matrix(-0.259118 -0.965846 -0.965846 0.259118 240.125 311.43)" fill="white"/>
<circle cx="366.5" cy="309.5" r="2.5" fill="white"/>
<circle cx="2.5" cy="2.5" r="2.5" transform="matrix(-1 0 0 1 45 307)" fill="white"/>
<path d="M188.531 224.973L42.25 310.005L171.495 309.863L204.78 253.118L188.531 224.973Z" fill="#42A68E"/>
<path d="M188.531 224.973L147.246 249.065L202.342 248.895L188.531 224.973Z" fill="#42A68E"/>
<path d="M188.667 225.009L160.194 241.449L198.226 241.565L188.667 225.009Z" fill="#42A68E"/>
<path d="M189.03 225.838L42.25 310.005L106.995 198.146L172.78 197.693L189.03 225.838Z" fill="#52C3A8"/>
<path d="M189.066 225.7L160.592 242.139L179.508 209.145L189.066 225.7Z" fill="#52C3A8"/>
<path d="M204.6 253.4L237.2 197H172L204.6 253.4Z" fill="white"/>
</svg>
